<svg xmlns="http://www.w3.org/2000/svg" viewBox="0 0 1200 675" role="img" aria-labelledby="title desc">
  <title id="title">Miniatura Hidro Evolution</title>
  <desc id="desc">Preview visual do site comercial Hidro Evolution.</desc>
  <defs>
    <linearGradient id="bg" x1="0" y1="0" x2="1" y2="1">
      <stop stop-color="#0a0e27"/>
      <stop offset="0.52" stop-color="#0066cc"/>
      <stop offset="1" stop-color="#00b4d8"/>
    </linearGradient>
  </defs>
  <rect width="1200" height="675" fill="#061526"/>
  <rect x="48" y="46" width="1104" height="583" rx="36" fill="url(#bg)"/>
  <text x="100" y="142" fill="#fff" font-family="Arial, sans-serif" font-size="34" font-weight="900">Hidro Evolution</text>
  <text x="100" y="260" fill="#fff" font-family="Arial, sans-serif" font-size="60" font-weight="900">Bebedouros e hidráulica</text>
  <text x="104" y="314" fill="#dbeafe" font-family="Arial, sans-serif" font-size="28" font-weight="700">soluções em água, sistemas hidráulicos e energia</text>
  <rect x="100" y="398" width="246" height="132" rx="28" fill="#fff" opacity=".15"/>
  <rect x="386" y="398" width="246" height="132" rx="28" fill="#fff" opacity=".15"/>
  <rect x="672" y="398" width="246" height="132" rx="28" fill="#fff" opacity=".15"/>
  <text x="140" y="476" fill="#fff" font-family="Arial, sans-serif" font-size="30" font-weight="900">Água</text>
  <text x="426" y="476" fill="#fff" font-family="Arial, sans-serif" font-size="30" font-weight="900">Energia</text>
  <text x="712" y="476" fill="#fff" font-family="Arial, sans-serif" font-size="30" font-weight="900">Serviços</text>
  <path d="M1000 206c55 82 104 144 104 214 0 68-48 114-104 114s-104-46-104-114c0-70 49-132 104-214z" fill="#fff" opacity=".85"/>
</svg>
